<?xml version="1.0" encoding="UTF-8"?>
<svg id="Layer_1" data-name="Layer 1" xmlns="http://www.w3.org/2000/svg" viewBox="0 0 512 512">
  <defs>
    <style>
      .cls-1 {
        fill: #fff;
      }

      .cls-2 {
        fill: #d00524;
      }
    </style>
  </defs>
  <rect class="cls-2" width="512" height="512" rx="170.67" ry="170.67"/>
  <g>
    <path class="cls-1" d="m94.55,353.45c-8.7,0-15.53-2.56-20.31-7.51s-7.17-12.12-7.17-21.16c0-8.53,2.56-15.53,7.51-20.82,4.95-5.46,11.61-8.19,19.97-8.19s15.53,2.56,20.31,7.51c4.95,4.95,7.34,12.12,7.34,21.5,0,8.53-2.56,15.36-7.85,20.65-5.29,5.29-11.78,8.02-19.97,8.02h.17Z"/>
    <path class="cls-1" d="m141.99,225.62v-44.89h113.83v44.89h-113.83Zm30.04,124.25v-211.97h51.37v211.97h-51.37Z"/>
    <path class="cls-1" d="m285.18,349.87v-169.3h48.81l1.88,34.47-10.58,3.75c2.39-7.68,6.49-14.68,12.63-20.82,5.97-6.31,13.31-11.26,21.85-15.19,8.53-3.75,17.41-5.8,26.79-5.8,12.8,0,23.55,2.56,32.26,7.85,8.7,5.12,15.19,12.97,19.63,23.21,4.27,10.24,6.49,23.04,6.49,38.06v103.59h-51.37v-99.84c0-6.83-1.02-12.46-2.9-16.9s-4.78-7.68-8.53-9.9c-3.75-2.05-8.53-3.07-14.34-2.9-4.44,0-8.53.68-12.46,2.05-3.75,1.37-7.17,3.41-10.07,5.97-2.9,2.73-5.12,5.63-6.49,9.05-1.54,3.41-2.22,7.17-2.22,11.43v100.69h-51.37v.51Z"/>
  </g>
</svg>