<?xml version="1.0" encoding="UTF-8"?>
<svg id="Layer_1" data-name="Layer 1" xmlns="http://www.w3.org/2000/svg" viewBox="0 0 50 30">
  <defs>
    <style>
      .cls-1 {
        fill: #fff;
      }

      .cls-2 {
        fill: #d00524;
      }
    </style>
  </defs>
  <rect class="cls-2" width="50" height="30" rx="5.12" ry="5.12"/>
  <g>
    <path class="cls-1" d="m11.78,22.84c-.34-.34-.5-.75-.5-1.25s.17-.91.5-1.25.75-.5,1.25-.5.89.17,1.22.5.5.75.5,1.25-.17.91-.5,1.25-.74.5-1.22.5-.91-.17-1.25-.5Z"/>
    <path class="cls-1" d="m20.9,12.18v7.32c0,.5.12.85.35,1.07.23.22.63.32,1.19.32h1.68v2.28h-2.16c-1.23,0-2.18-.29-2.83-.86s-.98-1.51-.98-2.81v-7.32h-1.56v-2.23h1.56v-3.29h2.76v3.29h3.22v2.23h-3.22Z"/>
    <path class="cls-1" d="m36.1,10.38c.82.43,1.47,1.07,1.93,1.92.46.85.7,1.87.7,3.07v7.8h-2.71v-7.39c0-1.18-.3-2.09-.89-2.72-.59-.63-1.4-.95-2.42-.95s-1.84.32-2.44.95c-.6.63-.9,1.54-.9,2.72v7.39h-2.74v-13.22h2.74v1.51c.45-.54,1.02-.97,1.72-1.27.7-.3,1.44-.46,2.22-.46,1.04,0,1.97.22,2.8.65Z"/>
  </g>
</svg>