<?xml version="1.0" encoding="UTF-8"?>
<svg id="Layer_1" data-name="Layer 1" xmlns="http://www.w3.org/2000/svg" viewBox="0 0 30 30">
  <defs>
    <style>
      .cls-1 {
        fill: #fff;
      }

      .cls-2 {
        fill: #d00524;
      }
    </style>
  </defs>
  <rect class="cls-2" x="0" y="0" width="30" height="30" rx="10" ry="10"/>
  <g>
    <path class="cls-1" d="m5.54,20.71c-.51,0-.91-.15-1.19-.44-.28-.29-.42-.71-.42-1.24,0-.5.15-.91.44-1.22.29-.32.68-.48,1.17-.48s.91.15,1.19.44c.29.29.43.71.43,1.26,0,.5-.15.9-.46,1.21-.31.31-.69.47-1.17.47Z"/>
    <path class="cls-1" d="m8.32,13.22v-2.63h6.67v2.63h-6.67Zm1.76,7.28v-12.42h3.01v12.42h-3.01Z"/>
    <path class="cls-1" d="m16.71,20.5v-9.92h2.86l.11,2.02-.62.22c.14-.45.38-.86.74-1.22.35-.37.78-.66,1.28-.89.5-.22,1.02-.34,1.57-.34.75,0,1.38.15,1.89.46.51.3.89.76,1.15,1.36.25.6.38,1.35.38,2.23v6.07h-3.01v-5.85c0-.4-.06-.73-.17-.99s-.28-.45-.5-.58c-.22-.12-.5-.18-.84-.17-.26,0-.5.04-.73.12-.22.08-.42.2-.59.35-.17.16-.3.33-.38.53-.09.2-.13.42-.13.67v5.9h-3.01Z"/>
  </g>
</svg>