<?xml version="1.0" encoding="utf-8"?>
<!-- Generator: Adobe Illustrator 27.3.1, SVG Export Plug-In . SVG Version: 6.00 Build 0)  -->
<svg version="1.1" id="Layer_1" xmlns="http://www.w3.org/2000/svg" xmlns:xlink="http://www.w3.org/1999/xlink" x="0px" y="0px"
	 viewBox="0 0 512 512" style="enable-background:new 0 0 512 512;" xml:space="preserve">
<style type="text/css">
	.st0{fill:#D00524;}
	.st1{fill:#FFFFFF;}
</style>
<path class="st0" d="M342,512H170C76.1,512,0,435.9,0,342V170C0,76.1,76.1,0,170,0h172c93.9,0,170,76.1,170,170v172
	C512,435.9,435.9,512,342,512z"/>
<g>
	<path class="st1" d="M95.8,352.6c-8.6,0-15.4-2.5-20.2-7.5s-7.1-12-7.1-21c0-8.5,2.5-15.4,7.5-20.7c4.9-5.4,11.5-8.1,19.8-8.1
		s15.4,2.5,20.2,7.5c4.9,4.9,7.3,12,7.3,21.3c0,8.5-2.5,15.2-7.8,20.5c-5.2,5.2-11.7,8-19.8,8L95.8,352.6L95.8,352.6z"/>
	<path class="st1" d="M142.9,225.8v-44.5h113v44.5H142.9z M172.7,349.1V138.7h51v210.4H172.7z"/>
	<path class="st1" d="M285,349.1v-168h48.4l1.9,34.2l-10.5,3.7c2.4-7.6,6.4-14.6,12.5-20.7c5.9-6.3,13.2-11.2,21.7-15.1
		c8.5-3.7,17.3-5.8,26.6-5.8c12.7,0,23.4,2.5,32,7.8c8.6,5.1,15.1,12.9,19.5,23c4.2,10.2,6.4,22.9,6.4,37.8v102.8h-51v-99.1
		c0-6.8-1-12.4-2.9-16.8s-4.7-7.6-8.5-9.8c-3.7-2-8.5-3-14.2-2.9c-4.4,0-8.5,0.7-12.4,2c-3.7,1.4-7.1,3.4-10,5.9
		c-2.9,2.7-5.1,5.6-6.4,9c-1.5,3.4-2.2,7.1-2.2,11.3v99.9h-51L285,349.1L285,349.1z"/>
</g>
</svg>
