<?xml version="1.0" encoding="UTF-8"?>
<svg id="Layer_1" data-name="Layer 1" xmlns="http://www.w3.org/2000/svg" viewBox="0 0 148.39 30">
  <defs>
    <style>
      .cls-1 {
        fill: #fff;
      }

      .cls-2 {
        fill: #1f2937;
      }

      .cls-3 {
        fill: #d00524;
      }
    </style>
  </defs>
  <rect class="cls-3" x="118.39" y="0" width="30" height="30" rx="10" ry="10"/>
  <g>
    <path class="cls-2" d="m0,20.48v-3.01h2.47v-8.61H0v-3.01h8.51v3.01h-2.47v8.61h2.47v3.01H0Z"/>
    <path class="cls-2" d="m11.54,20.48v-11.1h3.2l.12,2.26-.69.25c.15-.5.43-.96.83-1.37.4-.41.87-.74,1.43-.99.56-.25,1.14-.38,1.76-.38.84,0,1.54.17,2.11.51s1,.85,1.29,1.53c.29.68.43,1.51.43,2.5v6.79h-3.37v-6.54c0-.45-.06-.82-.19-1.11s-.31-.51-.56-.65c-.25-.14-.56-.2-.94-.19-.29,0-.56.05-.81.14-.25.09-.47.22-.66.4-.19.17-.33.37-.43.6-.1.22-.15.47-.15.75v6.6h-3.37Z"/>
    <path class="cls-2" d="m28.57,20.69c-1.06,0-2.01-.17-2.84-.51-.84-.34-1.5-.81-2.01-1.41l2.05-1.76c.43.43.92.75,1.46.95s1.06.3,1.55.3c.18,0,.34-.02.48-.06s.26-.1.37-.18c.1-.08.18-.17.24-.27.06-.1.08-.23.08-.37,0-.28-.12-.49-.36-.63-.11-.07-.31-.16-.61-.26-.29-.11-.67-.21-1.13-.32-.66-.17-1.22-.37-1.7-.61-.48-.24-.87-.51-1.18-.82-.28-.28-.49-.6-.64-.96-.15-.36-.22-.77-.22-1.21,0-.68.21-1.28.62-1.8.41-.52.95-.92,1.62-1.2s1.39-.43,2.17-.43c.61,0,1.19.07,1.75.21.55.14,1.07.33,1.55.59.48.25.91.55,1.29.9l-1.78,1.99c-.24-.24-.52-.45-.84-.64-.32-.19-.64-.34-.96-.46-.32-.12-.62-.18-.9-.18-.21,0-.39.02-.55.05-.16.03-.29.09-.4.17-.1.08-.18.17-.24.27s-.08.22-.08.34c0,.15.04.29.11.41.08.12.18.23.32.32.13.07.34.16.66.27s.73.24,1.24.38c.65.18,1.22.39,1.68.62s.84.5,1.12.8c.24.24.41.51.51.83.1.31.16.65.16,1.01,0,.71-.2,1.34-.6,1.89-.4.55-.94.98-1.63,1.3-.69.31-1.48.47-2.37.47Z"/>
    <path class="cls-2" d="m40.05,20.69c-1.07,0-2.04-.25-2.9-.75-.86-.5-1.53-1.19-2.02-2.06-.49-.87-.73-1.85-.73-2.94s.24-2.11.73-2.98c.49-.87,1.16-1.56,2.02-2.06s1.82-.75,2.9-.75c.99,0,1.9.18,2.73.53.83.35,1.48.84,1.95,1.45l-1.82,2.22c-.18-.24-.4-.45-.67-.65-.27-.19-.56-.35-.88-.46-.32-.11-.66-.17-1-.17-.53,0-1,.12-1.4.37-.4.24-.72.58-.94,1.01-.22.43-.33.92-.33,1.46s.11,1.01.34,1.43.55.76.95,1.01c.4.25.86.38,1.36.38.36,0,.7-.05,1-.15.31-.1.59-.24.85-.42.26-.18.5-.4.72-.65l1.82,2.22c-.47.58-1.14,1.05-1.99,1.41-.85.36-1.75.53-2.7.53Z"/>
    <path class="cls-2" d="m46.57,20.48v-11.1h3.2l.15,3.62-.63-.71c.18-.59.46-1.11.84-1.59.38-.47.83-.85,1.35-1.13.52-.28,1.07-.42,1.64-.42.25,0,.48.02.7.05.22.04.41.09.57.16l-.9,3.7c-.15-.08-.36-.16-.62-.22-.26-.06-.53-.09-.8-.09-.31,0-.59.05-.85.16-.26.1-.48.25-.67.45-.19.2-.33.43-.44.69s-.16.56-.16.9v5.54h-3.39Z"/>
    <path class="cls-2" d="m57.98,7.19c-.64,0-1.14-.15-1.49-.45-.36-.3-.53-.73-.53-1.29,0-.52.18-.93.54-1.25.36-.32.86-.48,1.48-.48s1.1.15,1.45.45.53.73.53,1.29c0,.52-.18.93-.53,1.25-.36.32-.84.48-1.45.48Zm-1.69,13.29v-11.1h3.37v11.1h-3.37Z"/>
    <path class="cls-2" d="m62.81,25.08v-15.7h3.2l.15,2.45-.65-.19c.08-.45.32-.85.7-1.22s.86-.67,1.43-.9,1.18-.34,1.82-.34c.95,0,1.79.24,2.53.73.74.49,1.32,1.17,1.75,2.04.43.87.64,1.87.64,3s-.21,2.08-.64,2.95c-.42.86-1.01,1.54-1.76,2.04-.75.49-1.59.74-2.54.74-.64,0-1.25-.12-1.82-.37-.57-.24-1.05-.56-1.44-.95-.39-.39-.64-.81-.75-1.27l.77-.31v7.32h-3.39Zm5.81-7.25c.5,0,.94-.12,1.31-.36.37-.24.65-.58.86-1.01.2-.44.3-.94.3-1.52s-.1-1.1-.3-1.54c-.2-.44-.49-.78-.86-1.02-.37-.24-.8-.37-1.31-.37s-.96.12-1.34.37c-.38.24-.67.58-.88,1.01-.21.43-.31.95-.31,1.55s.1,1.08.31,1.52.5.78.88,1.01c.38.24.82.36,1.34.36Z"/>
    <path class="cls-2" d="m75.52,12.33v-2.95h7.46v2.95h-7.46Zm1.96,8.15V6.58h3.36v13.9h-3.36Z"/>
    <path class="cls-2" d="m86.78,7.19c-.64,0-1.14-.15-1.49-.45-.36-.3-.53-.73-.53-1.29,0-.52.18-.93.54-1.25.36-.32.86-.48,1.48-.48s1.1.15,1.45.45.53.73.53,1.29c0,.52-.18.93-.53,1.25-.36.32-.84.48-1.45.48Zm-1.69,13.29v-11.1h3.37v11.1h-3.37Z"/>
    <path class="cls-2" d="m96.81,20.69c-1.14,0-2.17-.25-3.07-.74-.91-.49-1.62-1.18-2.13-2.05s-.77-1.86-.77-2.96.26-2.13.77-3c.52-.87,1.23-1.55,2.13-2.05s1.93-.74,3.07-.74,2.18.25,3.08.74,1.61,1.18,2.12,2.05c.52.87.77,1.87.77,3s-.26,2.09-.77,2.96c-.52.87-1.22,1.55-2.12,2.05-.9.5-1.93.74-3.08.74Zm0-2.88c.5,0,.94-.12,1.33-.38s.69-.59.91-1.02c.22-.43.33-.92.31-1.46.01-.57-.09-1.08-.31-1.52-.22-.44-.53-.78-.91-1.02-.38-.24-.83-.37-1.33-.37s-.93.13-1.32.38-.7.59-.92,1.02c-.22.43-.33.93-.33,1.5s.11,1.03.33,1.46c.22.43.53.77.92,1.02s.83.38,1.32.38Z"/>
    <path class="cls-2" d="m104.99,20.48v-11.1h3.2l.13,2.26-.69.25c.15-.5.43-.96.83-1.37.4-.41.87-.74,1.43-.99.56-.25,1.14-.38,1.76-.38.84,0,1.54.17,2.11.51.57.34,1,.85,1.29,1.53.29.68.43,1.51.43,2.5v6.79h-3.37v-6.54c0-.45-.06-.82-.19-1.11s-.31-.51-.56-.65c-.25-.14-.56-.2-.94-.19-.29,0-.56.05-.82.14-.25.09-.47.22-.66.4-.19.17-.33.37-.43.6-.1.22-.15.47-.15.75v6.6h-3.37Z"/>
  </g>
  <g>
    <path class="cls-1" d="m123.93,20.71c-.51,0-.91-.15-1.19-.44-.28-.29-.42-.71-.42-1.24,0-.5.15-.91.44-1.22.29-.32.68-.48,1.17-.48s.91.15,1.19.44c.29.29.43.71.43,1.26,0,.5-.15.9-.46,1.21-.31.31-.69.47-1.17.47Z"/>
    <path class="cls-1" d="m126.71,13.22v-2.63h6.67v2.63h-6.67Zm1.76,7.28v-12.42h3.01v12.42h-3.01Z"/>
    <path class="cls-1" d="m135.09,20.5v-9.92h2.86l.11,2.02-.62.22c.14-.45.38-.86.74-1.22.35-.37.78-.66,1.28-.89.5-.22,1.02-.34,1.57-.34.75,0,1.38.15,1.89.46.51.3.89.76,1.15,1.36.25.6.38,1.35.38,2.23v6.07h-3.01v-5.85c0-.4-.06-.73-.17-.99s-.28-.45-.5-.58c-.22-.12-.5-.18-.84-.17-.26,0-.5.04-.73.12-.22.08-.42.2-.59.35-.17.16-.3.33-.38.53-.09.2-.13.42-.13.67v5.9h-3.01Z"/>
  </g>
</svg>